<mxfile host="app.diagrams.net" modified="2023-10-03T19:16:31.057Z" agent="Mozilla/5.0 (Macintosh; Intel Mac OS X 10_15_7) AppleWebKit/537.36 (KHTML, like Gecko) Chrome/116.0.0.0 Safari/537.36" etag="EFeZOMrDQHpL2CTzNve7" version="21.7.5" type="device">
  <diagram id="R2lEEEUBdFMjLlhIrx00" name="Page-1">
    <mxGraphModel dx="1985" dy="1208" grid="1" gridSize="10" guides="1" tooltips="1" connect="1" arrows="1" fold="1" page="1" pageScale="1" pageWidth="850" pageHeight="1100" math="0" shadow="0" extFonts="Permanent Marker^https://fonts.googleapis.com/css?family=Permanent+Marker">
      <root>
        <mxCell id="0" />
        <mxCell id="1" parent="0" />
        <mxCell id="19eX_3axANcemUESUoeH-1" value="Employee" style="swimlane;fontStyle=0;childLayout=stackLayout;horizontal=1;startSize=30;horizontalStack=0;resizeParent=1;resizeParentMax=0;resizeLast=0;collapsible=1;marginBottom=0;whiteSpace=wrap;html=1;" vertex="1" parent="1">
          <mxGeometry x="160" y="356" width="120" height="300" as="geometry" />
        </mxCell>
        <mxCell id="19eX_3axANcemUESUoeH-2" value="&lt;b&gt;&lt;u&gt;Emp_ID&lt;/u&gt;&lt;/b&gt;" style="text;strokeColor=none;fillColor=none;align=left;verticalAlign=middle;spacingLeft=4;spacingRight=4;overflow=hidden;points=[[0,0.5],[1,0.5]];portConstraint=eastwest;rotatable=0;whiteSpace=wrap;html=1;" vertex="1" parent="19eX_3axANcemUESUoeH-1">
          <mxGeometry y="30" width="120" height="30" as="geometry" />
        </mxCell>
        <mxCell id="19eX_3axANcemUESUoeH-3" value="Name" style="text;strokeColor=none;fillColor=none;align=left;verticalAlign=middle;spacingLeft=4;spacingRight=4;overflow=hidden;points=[[0,0.5],[1,0.5]];portConstraint=eastwest;rotatable=0;whiteSpace=wrap;html=1;" vertex="1" parent="19eX_3axANcemUESUoeH-1">
          <mxGeometry y="60" width="120" height="30" as="geometry" />
        </mxCell>
        <mxCell id="19eX_3axANcemUESUoeH-4" value="Address" style="text;strokeColor=none;fillColor=none;align=left;verticalAlign=middle;spacingLeft=4;spacingRight=4;overflow=hidden;points=[[0,0.5],[1,0.5]];portConstraint=eastwest;rotatable=0;whiteSpace=wrap;html=1;" vertex="1" parent="19eX_3axANcemUESUoeH-1">
          <mxGeometry y="90" width="120" height="30" as="geometry" />
        </mxCell>
        <mxCell id="19eX_3axANcemUESUoeH-6" value="City" style="text;strokeColor=none;fillColor=none;align=left;verticalAlign=middle;spacingLeft=4;spacingRight=4;overflow=hidden;points=[[0,0.5],[1,0.5]];portConstraint=eastwest;rotatable=0;whiteSpace=wrap;html=1;" vertex="1" parent="19eX_3axANcemUESUoeH-1">
          <mxGeometry y="120" width="120" height="30" as="geometry" />
        </mxCell>
        <mxCell id="19eX_3axANcemUESUoeH-49" value="State" style="text;strokeColor=none;fillColor=none;align=left;verticalAlign=middle;spacingLeft=4;spacingRight=4;overflow=hidden;points=[[0,0.5],[1,0.5]];portConstraint=eastwest;rotatable=0;whiteSpace=wrap;html=1;" vertex="1" parent="19eX_3axANcemUESUoeH-1">
          <mxGeometry y="150" width="120" height="30" as="geometry" />
        </mxCell>
        <mxCell id="19eX_3axANcemUESUoeH-50" value="Zip" style="text;strokeColor=none;fillColor=none;align=left;verticalAlign=middle;spacingLeft=4;spacingRight=4;overflow=hidden;points=[[0,0.5],[1,0.5]];portConstraint=eastwest;rotatable=0;whiteSpace=wrap;html=1;" vertex="1" parent="19eX_3axANcemUESUoeH-1">
          <mxGeometry y="180" width="120" height="30" as="geometry" />
        </mxCell>
        <mxCell id="19eX_3axANcemUESUoeH-9" value="Birth_Date" style="text;strokeColor=none;fillColor=none;align=left;verticalAlign=middle;spacingLeft=4;spacingRight=4;overflow=hidden;points=[[0,0.5],[1,0.5]];portConstraint=eastwest;rotatable=0;whiteSpace=wrap;html=1;" vertex="1" parent="19eX_3axANcemUESUoeH-1">
          <mxGeometry y="210" width="120" height="30" as="geometry" />
        </mxCell>
        <mxCell id="19eX_3axANcemUESUoeH-10" value="Phone" style="text;strokeColor=none;fillColor=none;align=left;verticalAlign=middle;spacingLeft=4;spacingRight=4;overflow=hidden;points=[[0,0.5],[1,0.5]];portConstraint=eastwest;rotatable=0;whiteSpace=wrap;html=1;" vertex="1" parent="19eX_3axANcemUESUoeH-1">
          <mxGeometry y="240" width="120" height="30" as="geometry" />
        </mxCell>
        <mxCell id="19eX_3axANcemUESUoeH-30" value="&lt;b&gt;Employee_Group&lt;/b&gt;" style="text;strokeColor=none;fillColor=none;align=left;verticalAlign=middle;spacingLeft=4;spacingRight=4;overflow=hidden;points=[[0,0.5],[1,0.5]];portConstraint=eastwest;rotatable=0;whiteSpace=wrap;html=1;" vertex="1" parent="19eX_3axANcemUESUoeH-1">
          <mxGeometry y="270" width="120" height="30" as="geometry" />
        </mxCell>
        <mxCell id="19eX_3axANcemUESUoeH-12" value="o" style="ellipse;whiteSpace=wrap;html=1;aspect=fixed;" vertex="1" parent="1">
          <mxGeometry x="205" y="716" width="30" height="30" as="geometry" />
        </mxCell>
        <mxCell id="19eX_3axANcemUESUoeH-15" value="Staff" style="swimlane;fontStyle=0;childLayout=stackLayout;horizontal=1;startSize=26;horizontalStack=0;resizeParent=1;resizeParentMax=0;resizeLast=0;collapsible=1;marginBottom=0;align=center;fontSize=14;" vertex="1" parent="1">
          <mxGeometry x="160" y="836" width="120" height="56" as="geometry" />
        </mxCell>
        <mxCell id="19eX_3axANcemUESUoeH-16" value="Certificate" style="text;strokeColor=none;fillColor=none;spacingLeft=4;spacingRight=4;overflow=hidden;rotatable=0;points=[[0,0.5],[1,0.5]];portConstraint=eastwest;fontSize=12;whiteSpace=wrap;html=1;" vertex="1" parent="19eX_3axANcemUESUoeH-15">
          <mxGeometry y="26" width="120" height="30" as="geometry" />
        </mxCell>
        <mxCell id="19eX_3axANcemUESUoeH-19" value="Administrator" style="swimlane;fontStyle=0;childLayout=stackLayout;horizontal=1;startSize=26;horizontalStack=0;resizeParent=1;resizeParentMax=0;resizeLast=0;collapsible=1;marginBottom=0;align=center;fontSize=14;" vertex="1" parent="1">
          <mxGeometry y="796" width="120" height="56" as="geometry" />
        </mxCell>
        <mxCell id="19eX_3axANcemUESUoeH-20" value="Position" style="text;strokeColor=none;fillColor=none;spacingLeft=4;spacingRight=4;overflow=hidden;rotatable=0;points=[[0,0.5],[1,0.5]];portConstraint=eastwest;fontSize=12;whiteSpace=wrap;html=1;" vertex="1" parent="19eX_3axANcemUESUoeH-19">
          <mxGeometry y="26" width="120" height="30" as="geometry" />
        </mxCell>
        <mxCell id="19eX_3axANcemUESUoeH-95" style="edgeStyle=orthogonalEdgeStyle;rounded=0;orthogonalLoop=1;jettySize=auto;html=1;exitX=0.5;exitY=0;exitDx=0;exitDy=0;entryX=0.25;entryY=0;entryDx=0;entryDy=0;startArrow=ERmandOne;startFill=0;endArrow=ERzeroToMany;endFill=0;" edge="1" parent="1" source="19eX_3axANcemUESUoeH-23" target="19eX_3axANcemUESUoeH-86">
          <mxGeometry relative="1" as="geometry" />
        </mxCell>
        <mxCell id="19eX_3axANcemUESUoeH-23" value="Instructor" style="swimlane;fontStyle=0;childLayout=stackLayout;horizontal=1;startSize=26;horizontalStack=0;resizeParent=1;resizeParentMax=0;resizeLast=0;collapsible=1;marginBottom=0;align=center;fontSize=14;" vertex="1" parent="1">
          <mxGeometry x="320" y="796" width="120" height="80" as="geometry" />
        </mxCell>
        <mxCell id="19eX_3axANcemUESUoeH-24" value="Expertise" style="text;strokeColor=none;fillColor=none;spacingLeft=4;spacingRight=4;overflow=hidden;rotatable=0;points=[[0,0.5],[1,0.5]];portConstraint=eastwest;fontSize=12;whiteSpace=wrap;html=1;" vertex="1" parent="19eX_3axANcemUESUoeH-23">
          <mxGeometry y="26" width="120" height="30" as="geometry" />
        </mxCell>
        <mxCell id="19eX_3axANcemUESUoeH-25" value="Rank" style="text;strokeColor=none;fillColor=none;spacingLeft=4;spacingRight=4;overflow=hidden;rotatable=0;points=[[0,0.5],[1,0.5]];portConstraint=eastwest;fontSize=12;whiteSpace=wrap;html=1;" vertex="1" parent="19eX_3axANcemUESUoeH-23">
          <mxGeometry y="56" width="120" height="24" as="geometry" />
        </mxCell>
        <mxCell id="19eX_3axANcemUESUoeH-27" value="" style="endArrow=none;html=1;rounded=0;exitX=0.5;exitY=0;exitDx=0;exitDy=0;entryX=0;entryY=0.5;entryDx=0;entryDy=0;" edge="1" parent="1" source="19eX_3axANcemUESUoeH-19" target="19eX_3axANcemUESUoeH-12">
          <mxGeometry relative="1" as="geometry">
            <mxPoint x="130" y="816" as="sourcePoint" />
            <mxPoint x="290" y="816" as="targetPoint" />
          </mxGeometry>
        </mxCell>
        <mxCell id="19eX_3axANcemUESUoeH-28" value="" style="endArrow=none;html=1;rounded=0;entryX=0.5;entryY=1;entryDx=0;entryDy=0;exitX=0.5;exitY=0;exitDx=0;exitDy=0;" edge="1" parent="1" source="19eX_3axANcemUESUoeH-15" target="19eX_3axANcemUESUoeH-12">
          <mxGeometry relative="1" as="geometry">
            <mxPoint x="210" y="806" as="sourcePoint" />
            <mxPoint x="290" y="816" as="targetPoint" />
          </mxGeometry>
        </mxCell>
        <mxCell id="19eX_3axANcemUESUoeH-29" value="" style="endArrow=none;html=1;rounded=0;exitX=1;exitY=0.5;exitDx=0;exitDy=0;entryX=0.5;entryY=0;entryDx=0;entryDy=0;" edge="1" parent="1" source="19eX_3axANcemUESUoeH-12" target="19eX_3axANcemUESUoeH-23">
          <mxGeometry relative="1" as="geometry">
            <mxPoint x="130" y="816" as="sourcePoint" />
            <mxPoint x="380" y="756" as="targetPoint" />
          </mxGeometry>
        </mxCell>
        <mxCell id="19eX_3axANcemUESUoeH-31" value="Employee_Group=" style="text;strokeColor=none;fillColor=none;spacingLeft=4;spacingRight=4;overflow=hidden;rotatable=0;points=[[0,0.5],[1,0.5]];portConstraint=eastwest;fontSize=12;whiteSpace=wrap;html=1;" vertex="1" parent="1">
          <mxGeometry x="225" y="676" width="115" height="30" as="geometry" />
        </mxCell>
        <mxCell id="19eX_3axANcemUESUoeH-32" value="&quot;A&quot;" style="text;strokeColor=none;fillColor=none;spacingLeft=4;spacingRight=4;overflow=hidden;rotatable=0;points=[[0,0.5],[1,0.5]];portConstraint=eastwest;fontSize=12;whiteSpace=wrap;html=1;" vertex="1" parent="1">
          <mxGeometry x="100" y="746" width="40" height="30" as="geometry" />
        </mxCell>
        <mxCell id="19eX_3axANcemUESUoeH-33" value="&quot;I&quot;" style="text;strokeColor=none;fillColor=none;spacingLeft=4;spacingRight=4;overflow=hidden;rotatable=0;points=[[0,0.5],[1,0.5]];portConstraint=eastwest;fontSize=12;whiteSpace=wrap;html=1;" vertex="1" parent="1">
          <mxGeometry x="300" y="746" width="40" height="30" as="geometry" />
        </mxCell>
        <mxCell id="19eX_3axANcemUESUoeH-34" value="&quot;S&quot;" style="text;strokeColor=none;fillColor=none;spacingLeft=4;spacingRight=4;overflow=hidden;rotatable=0;points=[[0,0.5],[1,0.5]];portConstraint=eastwest;fontSize=12;whiteSpace=wrap;html=1;" vertex="1" parent="1">
          <mxGeometry x="220" y="776" width="40" height="30" as="geometry" />
        </mxCell>
        <mxCell id="19eX_3axANcemUESUoeH-35" value="Room" style="swimlane;fontStyle=0;childLayout=stackLayout;horizontal=1;startSize=26;horizontalStack=0;resizeParent=1;resizeParentMax=0;resizeLast=0;collapsible=1;marginBottom=0;align=center;fontSize=14;" vertex="1" parent="1">
          <mxGeometry x="450" y="90" width="160" height="146" as="geometry" />
        </mxCell>
        <mxCell id="19eX_3axANcemUESUoeH-36" value="&lt;b&gt;&lt;u&gt;Building_ID&lt;/u&gt;&lt;/b&gt;" style="text;strokeColor=none;fillColor=none;spacingLeft=4;spacingRight=4;overflow=hidden;rotatable=0;points=[[0,0.5],[1,0.5]];portConstraint=eastwest;fontSize=12;whiteSpace=wrap;html=1;" vertex="1" parent="19eX_3axANcemUESUoeH-35">
          <mxGeometry y="26" width="160" height="30" as="geometry" />
        </mxCell>
        <mxCell id="19eX_3axANcemUESUoeH-37" value="&lt;b&gt;&lt;u&gt;Room_NO&lt;/u&gt;&lt;/b&gt;" style="text;strokeColor=none;fillColor=none;spacingLeft=4;spacingRight=4;overflow=hidden;rotatable=0;points=[[0,0.5],[1,0.5]];portConstraint=eastwest;fontSize=12;whiteSpace=wrap;html=1;" vertex="1" parent="19eX_3axANcemUESUoeH-35">
          <mxGeometry y="56" width="160" height="30" as="geometry" />
        </mxCell>
        <mxCell id="19eX_3axANcemUESUoeH-38" value="Capacity" style="text;strokeColor=none;fillColor=none;spacingLeft=4;spacingRight=4;overflow=hidden;rotatable=0;points=[[0,0.5],[1,0.5]];portConstraint=eastwest;fontSize=12;whiteSpace=wrap;html=1;" vertex="1" parent="19eX_3axANcemUESUoeH-35">
          <mxGeometry y="86" width="160" height="30" as="geometry" />
        </mxCell>
        <mxCell id="19eX_3axANcemUESUoeH-52" value="&lt;b&gt;Room_Type&lt;/b&gt;" style="text;strokeColor=none;fillColor=none;spacingLeft=4;spacingRight=4;overflow=hidden;rotatable=0;points=[[0,0.5],[1,0.5]];portConstraint=eastwest;fontSize=12;whiteSpace=wrap;html=1;" vertex="1" parent="19eX_3axANcemUESUoeH-35">
          <mxGeometry y="116" width="160" height="30" as="geometry" />
        </mxCell>
        <mxCell id="19eX_3axANcemUESUoeH-39" value="" style="endArrow=ERzeroToOne;html=1;rounded=0;startArrow=ERzeroToMany;startFill=0;endFill=0;entryX=0;entryY=0.5;entryDx=0;entryDy=0;" edge="1" parent="1" target="19eX_3axANcemUESUoeH-45">
          <mxGeometry relative="1" as="geometry">
            <mxPoint x="280" y="371" as="sourcePoint" />
            <mxPoint x="400" y="376" as="targetPoint" />
          </mxGeometry>
        </mxCell>
        <mxCell id="19eX_3axANcemUESUoeH-40" value="Has Office" style="text;html=1;align=center;verticalAlign=middle;resizable=0;points=[];autosize=1;strokeColor=none;fillColor=none;" vertex="1" parent="1">
          <mxGeometry x="300" y="346" width="80" height="30" as="geometry" />
        </mxCell>
        <mxCell id="19eX_3axANcemUESUoeH-41" value="d" style="ellipse;whiteSpace=wrap;html=1;aspect=fixed;" vertex="1" parent="1">
          <mxGeometry x="515" y="316" width="30" height="30" as="geometry" />
        </mxCell>
        <mxCell id="19eX_3axANcemUESUoeH-42" value="" style="shape=link;html=1;rounded=0;entryX=0.498;entryY=1.044;entryDx=0;entryDy=0;entryPerimeter=0;" edge="1" parent="1" target="19eX_3axANcemUESUoeH-52">
          <mxGeometry relative="1" as="geometry">
            <mxPoint x="530" y="316" as="sourcePoint" />
            <mxPoint x="490" y="266" as="targetPoint" />
          </mxGeometry>
        </mxCell>
        <mxCell id="19eX_3axANcemUESUoeH-43" value="" style="resizable=0;html=1;whiteSpace=wrap;align=right;verticalAlign=bottom;" connectable="0" vertex="1" parent="19eX_3axANcemUESUoeH-42">
          <mxGeometry x="1" relative="1" as="geometry" />
        </mxCell>
        <mxCell id="19eX_3axANcemUESUoeH-90" style="edgeStyle=orthogonalEdgeStyle;rounded=0;orthogonalLoop=1;jettySize=auto;html=1;exitX=0.5;exitY=1;exitDx=0;exitDy=0;entryX=0.5;entryY=0;entryDx=0;entryDy=0;startArrow=ERzeroToMany;startFill=0;endArrow=ERzeroToMany;endFill=0;" edge="1" parent="1" source="19eX_3axANcemUESUoeH-44" target="19eX_3axANcemUESUoeH-86">
          <mxGeometry relative="1" as="geometry" />
        </mxCell>
        <mxCell id="19eX_3axANcemUESUoeH-44" value="Classroom" style="whiteSpace=wrap;html=1;align=center;" vertex="1" parent="1">
          <mxGeometry x="560" y="356" width="100" height="30" as="geometry" />
        </mxCell>
        <mxCell id="19eX_3axANcemUESUoeH-45" value="Office" style="whiteSpace=wrap;html=1;align=center;" vertex="1" parent="1">
          <mxGeometry x="400" y="356" width="100" height="30" as="geometry" />
        </mxCell>
        <mxCell id="19eX_3axANcemUESUoeH-53" value="Room_Type=" style="text;html=1;align=center;verticalAlign=middle;resizable=0;points=[];autosize=1;strokeColor=none;fillColor=none;" vertex="1" parent="1">
          <mxGeometry x="425" y="260" width="100" height="30" as="geometry" />
        </mxCell>
        <mxCell id="19eX_3axANcemUESUoeH-55" value="" style="line;strokeWidth=4;direction=south;html=1;perimeter=backbonePerimeter;points=[];outlineConnect=0;" vertex="1" parent="1">
          <mxGeometry x="215" y="656" width="10" height="60" as="geometry" />
        </mxCell>
        <mxCell id="19eX_3axANcemUESUoeH-57" value="" style="endArrow=none;html=1;rounded=0;exitX=0.5;exitY=0;exitDx=0;exitDy=0;entryX=0;entryY=0.5;entryDx=0;entryDy=0;" edge="1" parent="1" source="19eX_3axANcemUESUoeH-45" target="19eX_3axANcemUESUoeH-41">
          <mxGeometry relative="1" as="geometry">
            <mxPoint x="340" y="476" as="sourcePoint" />
            <mxPoint x="500" y="476" as="targetPoint" />
          </mxGeometry>
        </mxCell>
        <mxCell id="19eX_3axANcemUESUoeH-58" value="" style="endArrow=none;html=1;rounded=0;entryX=1;entryY=0.5;entryDx=0;entryDy=0;exitX=0.5;exitY=0;exitDx=0;exitDy=0;" edge="1" parent="1" source="19eX_3axANcemUESUoeH-44" target="19eX_3axANcemUESUoeH-41">
          <mxGeometry relative="1" as="geometry">
            <mxPoint x="340" y="476" as="sourcePoint" />
            <mxPoint x="500" y="476" as="targetPoint" />
          </mxGeometry>
        </mxCell>
        <mxCell id="19eX_3axANcemUESUoeH-102" style="edgeStyle=orthogonalEdgeStyle;rounded=0;orthogonalLoop=1;jettySize=auto;html=1;exitX=0.5;exitY=0;exitDx=0;exitDy=0;entryX=0.5;entryY=0;entryDx=0;entryDy=0;endArrow=ERzeroToMany;endFill=0;startArrow=ERmandOne;startFill=0;" edge="1" parent="1" source="19eX_3axANcemUESUoeH-60" target="19eX_3axANcemUESUoeH-96">
          <mxGeometry relative="1" as="geometry" />
        </mxCell>
        <mxCell id="19eX_3axANcemUESUoeH-60" value="Semester" style="swimlane;fontStyle=0;childLayout=stackLayout;horizontal=1;startSize=26;horizontalStack=0;resizeParent=1;resizeParentMax=0;resizeLast=0;collapsible=1;marginBottom=0;align=center;fontSize=14;" vertex="1" parent="1">
          <mxGeometry x="670" y="100" width="160" height="86" as="geometry" />
        </mxCell>
        <mxCell id="19eX_3axANcemUESUoeH-61" value="SemesterName" style="text;strokeColor=none;fillColor=none;spacingLeft=4;spacingRight=4;overflow=hidden;rotatable=0;points=[[0,0.5],[1,0.5]];portConstraint=eastwest;fontSize=12;whiteSpace=wrap;html=1;" vertex="1" parent="19eX_3axANcemUESUoeH-60">
          <mxGeometry y="26" width="160" height="30" as="geometry" />
        </mxCell>
        <mxCell id="19eX_3axANcemUESUoeH-62" value="Year&lt;br&gt;" style="text;strokeColor=none;fillColor=none;spacingLeft=4;spacingRight=4;overflow=hidden;rotatable=0;points=[[0,0.5],[1,0.5]];portConstraint=eastwest;fontSize=12;whiteSpace=wrap;html=1;" vertex="1" parent="19eX_3axANcemUESUoeH-60">
          <mxGeometry y="56" width="160" height="30" as="geometry" />
        </mxCell>
        <mxCell id="19eX_3axANcemUESUoeH-64" value="Timeslot" style="swimlane;fontStyle=0;childLayout=stackLayout;horizontal=1;startSize=26;horizontalStack=0;resizeParent=1;resizeParentMax=0;resizeLast=0;collapsible=1;marginBottom=0;align=center;fontSize=14;" vertex="1" parent="1">
          <mxGeometry x="680" y="676" width="160" height="146" as="geometry" />
        </mxCell>
        <mxCell id="19eX_3axANcemUESUoeH-65" value="&lt;b&gt;&lt;u&gt;TSIS&lt;/u&gt;&lt;/b&gt;" style="text;strokeColor=none;fillColor=none;spacingLeft=4;spacingRight=4;overflow=hidden;rotatable=0;points=[[0,0.5],[1,0.5]];portConstraint=eastwest;fontSize=12;whiteSpace=wrap;html=1;" vertex="1" parent="19eX_3axANcemUESUoeH-64">
          <mxGeometry y="26" width="160" height="30" as="geometry" />
        </mxCell>
        <mxCell id="19eX_3axANcemUESUoeH-66" value="DayofWeek" style="text;strokeColor=none;fillColor=none;spacingLeft=4;spacingRight=4;overflow=hidden;rotatable=0;points=[[0,0.5],[1,0.5]];portConstraint=eastwest;fontSize=12;whiteSpace=wrap;html=1;" vertex="1" parent="19eX_3axANcemUESUoeH-64">
          <mxGeometry y="56" width="160" height="30" as="geometry" />
        </mxCell>
        <mxCell id="19eX_3axANcemUESUoeH-67" value="StartTime" style="text;strokeColor=none;fillColor=none;spacingLeft=4;spacingRight=4;overflow=hidden;rotatable=0;points=[[0,0.5],[1,0.5]];portConstraint=eastwest;fontSize=12;whiteSpace=wrap;html=1;" vertex="1" parent="19eX_3axANcemUESUoeH-64">
          <mxGeometry y="86" width="160" height="30" as="geometry" />
        </mxCell>
        <mxCell id="19eX_3axANcemUESUoeH-68" value="EndTime" style="text;strokeColor=none;fillColor=none;spacingLeft=4;spacingRight=4;overflow=hidden;rotatable=0;points=[[0,0.5],[1,0.5]];portConstraint=eastwest;fontSize=12;whiteSpace=wrap;html=1;" vertex="1" parent="19eX_3axANcemUESUoeH-64">
          <mxGeometry y="116" width="160" height="30" as="geometry" />
        </mxCell>
        <mxCell id="19eX_3axANcemUESUoeH-94" style="edgeStyle=orthogonalEdgeStyle;rounded=0;orthogonalLoop=1;jettySize=auto;html=1;exitX=0.5;exitY=0;exitDx=0;exitDy=0;entryX=0.75;entryY=0;entryDx=0;entryDy=0;startArrow=ERmandOne;startFill=0;endArrow=ERoneToMany;endFill=0;" edge="1" parent="1" source="19eX_3axANcemUESUoeH-69" target="19eX_3axANcemUESUoeH-86">
          <mxGeometry relative="1" as="geometry" />
        </mxCell>
        <mxCell id="19eX_3axANcemUESUoeH-69" value="Course" style="swimlane;fontStyle=0;childLayout=stackLayout;horizontal=1;startSize=26;horizontalStack=0;resizeParent=1;resizeParentMax=0;resizeLast=0;collapsible=1;marginBottom=0;align=center;fontSize=14;" vertex="1" parent="1">
          <mxGeometry x="500" y="690" width="160" height="146" as="geometry" />
        </mxCell>
        <mxCell id="19eX_3axANcemUESUoeH-70" value="&lt;b&gt;&lt;u&gt;Course_ID&lt;/u&gt;&lt;/b&gt;" style="text;strokeColor=none;fillColor=none;spacingLeft=4;spacingRight=4;overflow=hidden;rotatable=0;points=[[0,0.5],[1,0.5]];portConstraint=eastwest;fontSize=12;whiteSpace=wrap;html=1;" vertex="1" parent="19eX_3axANcemUESUoeH-69">
          <mxGeometry y="26" width="160" height="30" as="geometry" />
        </mxCell>
        <mxCell id="19eX_3axANcemUESUoeH-71" value="Course Description" style="text;strokeColor=none;fillColor=none;spacingLeft=4;spacingRight=4;overflow=hidden;rotatable=0;points=[[0,0.5],[1,0.5]];portConstraint=eastwest;fontSize=12;whiteSpace=wrap;html=1;" vertex="1" parent="19eX_3axANcemUESUoeH-69">
          <mxGeometry y="56" width="160" height="30" as="geometry" />
        </mxCell>
        <mxCell id="19eX_3axANcemUESUoeH-72" value="Credits" style="text;strokeColor=none;fillColor=none;spacingLeft=4;spacingRight=4;overflow=hidden;rotatable=0;points=[[0,0.5],[1,0.5]];portConstraint=eastwest;fontSize=12;whiteSpace=wrap;html=1;" vertex="1" parent="19eX_3axANcemUESUoeH-69">
          <mxGeometry y="86" width="160" height="30" as="geometry" />
        </mxCell>
        <mxCell id="19eX_3axANcemUESUoeH-84" value="&lt;b&gt;Prerequisite&lt;/b&gt;" style="text;strokeColor=none;fillColor=none;spacingLeft=4;spacingRight=4;overflow=hidden;rotatable=0;points=[[0,0.5],[1,0.5]];portConstraint=eastwest;fontSize=12;whiteSpace=wrap;html=1;" vertex="1" parent="19eX_3axANcemUESUoeH-69">
          <mxGeometry y="116" width="160" height="30" as="geometry" />
        </mxCell>
        <mxCell id="19eX_3axANcemUESUoeH-78" value="Prerequisite" style="whiteSpace=wrap;html=1;align=center;" vertex="1" parent="1">
          <mxGeometry x="530" y="916" width="100" height="40" as="geometry" />
        </mxCell>
        <mxCell id="19eX_3axANcemUESUoeH-83" value="" style="endArrow=ERzeroToOne;html=1;rounded=0;exitX=0.5;exitY=0;exitDx=0;exitDy=0;startArrow=ERzeroToMany;startFill=0;endFill=0;" edge="1" parent="1" source="19eX_3axANcemUESUoeH-78">
          <mxGeometry relative="1" as="geometry">
            <mxPoint x="220" y="726" as="sourcePoint" />
            <mxPoint x="580" y="836" as="targetPoint" />
          </mxGeometry>
        </mxCell>
        <mxCell id="19eX_3axANcemUESUoeH-86" value="Section" style="swimlane;fontStyle=0;childLayout=stackLayout;horizontal=1;startSize=26;horizontalStack=0;resizeParent=1;resizeParentMax=0;resizeLast=0;collapsible=1;marginBottom=0;align=center;fontSize=14;" vertex="1" parent="1">
          <mxGeometry x="500" y="506" width="160" height="86" as="geometry" />
        </mxCell>
        <mxCell id="19eX_3axANcemUESUoeH-87" value="&lt;b&gt;&lt;u&gt;Section_ID&lt;/u&gt;&lt;/b&gt;" style="text;strokeColor=none;fillColor=none;spacingLeft=4;spacingRight=4;overflow=hidden;rotatable=0;points=[[0,0.5],[1,0.5]];portConstraint=eastwest;fontSize=12;whiteSpace=wrap;html=1;" vertex="1" parent="19eX_3axANcemUESUoeH-86">
          <mxGeometry y="26" width="160" height="30" as="geometry" />
        </mxCell>
        <mxCell id="19eX_3axANcemUESUoeH-88" value="Enrollment Limit" style="text;strokeColor=none;fillColor=none;spacingLeft=4;spacingRight=4;overflow=hidden;rotatable=0;points=[[0,0.5],[1,0.5]];portConstraint=eastwest;fontSize=12;whiteSpace=wrap;html=1;" vertex="1" parent="19eX_3axANcemUESUoeH-86">
          <mxGeometry y="56" width="160" height="30" as="geometry" />
        </mxCell>
        <mxCell id="19eX_3axANcemUESUoeH-93" style="edgeStyle=orthogonalEdgeStyle;rounded=0;orthogonalLoop=1;jettySize=auto;html=1;exitX=1;exitY=0.5;exitDx=0;exitDy=0;entryX=0.5;entryY=1;entryDx=0;entryDy=0;startArrow=ERone;startFill=0;endArrow=ERzeroToMany;endFill=0;" edge="1" parent="1" source="19eX_3axANcemUESUoeH-78" target="19eX_3axANcemUESUoeH-78">
          <mxGeometry relative="1" as="geometry" />
        </mxCell>
        <mxCell id="19eX_3axANcemUESUoeH-98" style="edgeStyle=orthogonalEdgeStyle;rounded=0;orthogonalLoop=1;jettySize=auto;html=1;exitX=0;exitY=0.5;exitDx=0;exitDy=0;entryX=0.5;entryY=0;entryDx=0;entryDy=0;startArrow=ERzeroToMany;startFill=0;endArrow=ERmandOne;endFill=0;" edge="1" parent="1" source="19eX_3axANcemUESUoeH-96" target="19eX_3axANcemUESUoeH-44">
          <mxGeometry relative="1" as="geometry" />
        </mxCell>
        <mxCell id="19eX_3axANcemUESUoeH-96" value="Classroom Schedule" style="whiteSpace=wrap;html=1;align=center;" vertex="1" parent="1">
          <mxGeometry x="620" y="270" width="120" height="40" as="geometry" />
        </mxCell>
        <mxCell id="19eX_3axANcemUESUoeH-100" style="edgeStyle=orthogonalEdgeStyle;rounded=0;orthogonalLoop=1;jettySize=auto;html=1;exitX=0.5;exitY=1;exitDx=0;exitDy=0;entryX=0.5;entryY=0;entryDx=0;entryDy=0;startArrow=ERzeroToMany;startFill=0;endArrow=ERmandOne;endFill=0;" edge="1" parent="1" source="19eX_3axANcemUESUoeH-99" target="19eX_3axANcemUESUoeH-64">
          <mxGeometry relative="1" as="geometry" />
        </mxCell>
        <mxCell id="19eX_3axANcemUESUoeH-101" style="edgeStyle=orthogonalEdgeStyle;rounded=0;orthogonalLoop=1;jettySize=auto;html=1;exitX=0.5;exitY=0;exitDx=0;exitDy=0;entryX=0.5;entryY=1;entryDx=0;entryDy=0;endArrow=ERmandOne;endFill=0;startArrow=ERzeroToMany;startFill=0;" edge="1" parent="1" source="19eX_3axANcemUESUoeH-99" target="19eX_3axANcemUESUoeH-60">
          <mxGeometry relative="1" as="geometry" />
        </mxCell>
        <mxCell id="19eX_3axANcemUESUoeH-99" value="Timeslot Schedule" style="whiteSpace=wrap;html=1;align=center;" vertex="1" parent="1">
          <mxGeometry x="710" y="506" width="120" height="40" as="geometry" />
        </mxCell>
        <mxCell id="19eX_3axANcemUESUoeH-104" value="&quot;O&quot;" style="text;html=1;align=center;verticalAlign=middle;resizable=0;points=[];autosize=1;strokeColor=none;fillColor=none;" vertex="1" parent="1">
          <mxGeometry x="440" y="318" width="40" height="30" as="geometry" />
        </mxCell>
        <mxCell id="19eX_3axANcemUESUoeH-105" value="&quot;C&quot;" style="text;html=1;align=center;verticalAlign=middle;resizable=0;points=[];autosize=1;strokeColor=none;fillColor=none;" vertex="1" parent="1">
          <mxGeometry x="560" y="316" width="40" height="30" as="geometry" />
        </mxCell>
      </root>
    </mxGraphModel>
  </diagram>
</mxfile>
